

General.

Complete name                    : I, Robot[2004]ENG[BRRip]Xvid-{RedDragon}.avi
Format                           : .AVI
Format/Info                      : Audio Video Interleave
File size                        : 1.11 GiB
Duration                         : 1h 40mn
Overall bit rate                 : 1,581 Kbps
IMDB Link                        : http://www.imdb.com/title/tt0343818/
IMDB Rating                      : 7.0/10


Video.

ID                               : 0
Format                           : MPEG-4 Visual
Format profile                   : Advanced Simple@L5
Format settings, BVOP            : Yes
Format settings, QPel            : No
Format settings, GMC             : No warppoints
Format settings, Matrix          : Default (MPEG)
Muxing mode                      : Packed bitstream
Codec ID                         : XVID
Codec ID/Hint                    : XviD
Duration                         : 1h 40mn
Bit rate                         : 1 124 Kbps
Width                            : 672 pixels
Height                           : 288 pixels
Display aspect ratio             : 2.35:1
Frame rate                       : 25.000 fps
Color space                      : YUV
Chroma subsampling               : 4:2:0
Bit depth                        : 8 bits
Scan type                        : Progressive
Bits/(Pixel*Frame)               : 0.232
Stream size                      : 810 MiB (71%)
Writing library                  : XviD 1.2.0.dev47 (UTC 2006-11-01)


Audio.

ID                               : 1
Format                           : AC-3
Format/Info                      : Audio Coding 3
Mode extension                   : CM (complete main)
Codec ID                         : 2000
Duration                         : 1h 40mn
Bit rate mode                    : Constant
Bit rate                         : 448 Kbps
Channel(s)                       : 6 channels
Channel positions                : Front: L C R, Side: L R, LFE
Sampling rate                    : 48.0 KHz
Bit depth                        : 16 bits
Stream size                      : 323 MiB (28%)
Alignment                        : Split accross interleaves
Interleave, duration             : 40 ms (1.00 video frame)
Interleave, preload duration     : 500 ms


Screens:

